{
  "accessors": [
    {
      "bufferView": 2,
      "componentType": 5126,
      "count": 7137,
      "max": [
        3.8619608879089355,
        7.40262508392334,
        1.8423800468444824
      ],
      "min": [
        -2.065464973449707,
        3.7731239795684814,
        -0.4281890094280243
      ],
      "type": "VEC3"
    },
    {
      "bufferView": 2,
      "byteOffset": 85644,
      "componentType": 5126,
      "count": 7137,
      "max": [
        0.9999157786369324,
        0.9999991059303284,
        0.9998120069503784
      ],
      "min": [
        -0.9998365044593811,
        -0.9999672174453735,
        -0.9999855756759644
      ],
      "type": "VEC3"
    },
    {
      "bufferView": 3,
      "componentType": 5126,
      "count": 7137,
      "max": [
        0.999998927116394,
        0.9013222455978394,
        0.9999548196792603,
        1.0
      ],
      "min": [
        -0.23461522161960602,
        -0.9837521314620972,
        -0.9999939799308777,
        1.0
      ],
      "type": "VEC4"
    },
    {
      "bufferView": 1,
      "componentType": 5126,
      "count": 7137,
      "max": [
        0.8065569996833801,
        0.9999520182609558
      ],
      "min": [
        1.4000000192027073e-05,
        4.999999873689376e-05
      ],
      "type": "VEC2"
    },
    {
      "bufferView": 0,
      "componentType": 5125,
      "count": 41622,
      "type": "SCALAR"
    }
  ],
  "asset": {
    "extras": {
      "author": "SenYul (https://sketchfab.com/senyul)",
      "license": "CC-BY-NC-4.0 (http://creativecommons.org/licenses/by-nc/4.0/)",
      "source": "https://sketchfab.com/3d-models/sarcophagus-3e8028d711e7492c9e82e06449d621a9",
      "title": "Sarcophagus"
    },
    "generator": "Sketchfab-12.68.0",
    "version": "2.0"
  },
  "bufferViews": [
    {
      "buffer": 0,
      "byteLength": 166488,
      "name": "floatBufferViews",
      "target": 34963
    },
    {
      "buffer": 0,
      "byteLength": 57096,
      "byteOffset": 166488,
      "byteStride": 8,
      "name": "floatBufferViews",
      "target": 34962
    },
    {
      "buffer": 0,
      "byteLength": 171288,
      "byteOffset": 223584,
      "byteStride": 12,
      "name": "floatBufferViews",
      "target": 34962
    },
    {
      "buffer": 0,
      "byteLength": 114192,
      "byteOffset": 394872,
      "byteStride": 16,
      "name": "floatBufferViews",
      "target": 34962
    }
  ],
  "buffers": [
    {
      "byteLength": 509064,
      "uri": "scene.bin"
    }
  ],
  "images": [
    {
      "uri": "textures/coff_baseColor.jpeg"
    },
    {
      "uri": "textures/coff_metallicRoughness.png"
    },
    {
      "uri": "textures/coff_normal.jpeg"
    }
  ],
  "materials": [
    {
      "doubleSided": true,
      "name": "coff",
      "normalTexture": {
        "index": 2
      },
      "occlusionTexture": {
        "index": 1
      },
      "pbrMetallicRoughness": {
        "baseColorTexture": {
          "index": 0
        },
        "metallicFactor": 0.0,
        "metallicRoughnessTexture": {
          "index": 1
        }
      }
    }
  ],
  "meshes": [
    {
      "name": "Object_0",
      "primitives": [
        {
          "attributes": {
            "NORMAL": 1,
            "POSITION": 0,
            "TANGENT": 2,
            "TEXCOORD_0": 3
          },
          "indices": 4,
          "material": 0,
          "mode": 4
        }
      ]
    }
  ],
  "nodes": [
    {
      "children": [
        1
      ],
      "matrix": [
        0.005197844933718443,
        0.9998949766159058,
        0.013530274853110535,
        0.0,
        1.7433970933566911e-16,
        0.01353045739233516,
        -0.999908447265625,
        0.0,
        -0.999986469745636,
        0.005197369493544102,
        7.032922439975779e-05,
        0.0,
        1.6006672382354736,
        -0.2703374922275543,
        -0.012714791111648143,
        1.0
      ],
      "name": "Sketchfab_model"
    },
    {
      "children": [
        2
      ],
      "name": "coff.obj.cleaner.materialmerger.gles"
    },
    {
      "mesh": 0,
      "name": "Object_2"
    }
  ],
  "samplers": [
    {
      "magFilter": 9729,
      "minFilter": 9987,
      "wrapS": 10497,
      "wrapT": 10497
    }
  ],
  "scene": 0,
  "scenes": [
    {
      "name": "Sketchfab_Scene",
      "nodes": [
        0
      ]
    }
  ],
  "textures": [
    {
      "sampler": 0,
      "source": 0
    },
    {
      "sampler": 0,
      "source": 1
    },
    {
      "sampler": 0,
      "source": 2
    }
  ]
}
